<mxfile host="app.diagrams.net" agent="Mozilla/5.0 (Windows NT 10.0; Win64; x64) AppleWebKit/537.36 (KHTML, like Gecko) Chrome/129.0.0.0 Safari/537.36 Edg/129.0.0.0" version="24.7.16" pages="2">
  <diagram name="Page-1" id="x4K4CEO3Q-1ovU_ClNiI">
    <mxGraphModel dx="1386" dy="781" grid="1" gridSize="10" guides="1" tooltips="1" connect="1" arrows="1" fold="1" page="1" pageScale="1" pageWidth="827" pageHeight="1169" math="0" shadow="0">
      <root>
        <mxCell id="0" />
        <mxCell id="1" parent="0" />
        <mxCell id="N8VDQgT_DGMl3T4in-GJ-12" style="edgeStyle=orthogonalEdgeStyle;rounded=0;orthogonalLoop=1;jettySize=auto;html=1;shadow=0;labelBackgroundColor=none;strokeColor=#736CA8;fontColor=default;" parent="1" source="N8VDQgT_DGMl3T4in-GJ-1" target="N8VDQgT_DGMl3T4in-GJ-2" edge="1">
          <mxGeometry relative="1" as="geometry" />
        </mxCell>
        <mxCell id="N8VDQgT_DGMl3T4in-GJ-1" value="" style="image;aspect=fixed;html=1;points=[];align=center;fontSize=12;image=img/lib/azure2/other/Connected_Vehicle_Platform.svg;shadow=0;labelBackgroundColor=none;fillColor=#5D7F99;strokeColor=#D0CEE2;fontColor=#1A1A1A;" parent="1" vertex="1">
          <mxGeometry x="90" y="43" width="68" height="52" as="geometry" />
        </mxCell>
        <mxCell id="N8VDQgT_DGMl3T4in-GJ-10" style="edgeStyle=orthogonalEdgeStyle;rounded=0;orthogonalLoop=1;jettySize=auto;html=1;shadow=0;labelBackgroundColor=none;strokeColor=#736CA8;fontColor=default;" parent="1" source="N8VDQgT_DGMl3T4in-GJ-2" target="N8VDQgT_DGMl3T4in-GJ-3" edge="1">
          <mxGeometry relative="1" as="geometry" />
        </mxCell>
        <mxCell id="N8VDQgT_DGMl3T4in-GJ-13" style="edgeStyle=orthogonalEdgeStyle;rounded=0;orthogonalLoop=1;jettySize=auto;html=1;shadow=0;labelBackgroundColor=none;strokeColor=#736CA8;fontColor=default;" parent="1" source="N8VDQgT_DGMl3T4in-GJ-2" target="N8VDQgT_DGMl3T4in-GJ-1" edge="1">
          <mxGeometry relative="1" as="geometry" />
        </mxCell>
        <mxCell id="N8VDQgT_DGMl3T4in-GJ-21" value="①send&lt;div&gt;④reply&lt;/div&gt;" style="edgeLabel;html=1;align=center;verticalAlign=middle;resizable=0;points=[];fontSize=20;shadow=0;labelBackgroundColor=none;fontColor=#1A1A1A;" parent="N8VDQgT_DGMl3T4in-GJ-13" vertex="1" connectable="0">
          <mxGeometry x="0.04" relative="1" as="geometry">
            <mxPoint as="offset" />
          </mxGeometry>
        </mxCell>
        <mxCell id="N8VDQgT_DGMl3T4in-GJ-30" style="edgeStyle=orthogonalEdgeStyle;rounded=0;orthogonalLoop=1;jettySize=auto;html=1;shadow=0;labelBackgroundColor=none;strokeColor=#736CA8;fontColor=default;" parent="1" source="N8VDQgT_DGMl3T4in-GJ-2" target="N8VDQgT_DGMl3T4in-GJ-8" edge="1">
          <mxGeometry relative="1" as="geometry">
            <Array as="points">
              <mxPoint x="368" y="335" />
            </Array>
          </mxGeometry>
        </mxCell>
        <mxCell id="N8VDQgT_DGMl3T4in-GJ-31" value="&lt;span style=&quot;font-size: 20px;&quot;&gt;②wait the biz middleware reply&lt;/span&gt;&lt;div style=&quot;font-size: 20px;&quot;&gt;then store in the redis&lt;/div&gt;" style="edgeLabel;html=1;align=center;verticalAlign=middle;resizable=0;points=[];shadow=0;labelBackgroundColor=none;fontColor=#1A1A1A;" parent="N8VDQgT_DGMl3T4in-GJ-30" vertex="1" connectable="0">
          <mxGeometry x="-0.5304" y="1" relative="1" as="geometry">
            <mxPoint as="offset" />
          </mxGeometry>
        </mxCell>
        <mxCell id="N8VDQgT_DGMl3T4in-GJ-2" value="通信ミドル" style="verticalLabelPosition=bottom;html=1;verticalAlign=top;align=center;strokeColor=none;fillColor=#5D7F99;shape=mxgraph.azure.virtual_machine;shadow=0;labelBackgroundColor=none;fontColor=#1A1A1A;" parent="1" vertex="1">
          <mxGeometry x="314" y="34" width="100" height="70" as="geometry" />
        </mxCell>
        <mxCell id="N8VDQgT_DGMl3T4in-GJ-3" value="分析ミドル" style="verticalLabelPosition=bottom;html=1;verticalAlign=top;align=center;strokeColor=none;fillColor=#5D7F99;shape=mxgraph.azure.virtual_machine;shadow=0;labelBackgroundColor=none;fontColor=#1A1A1A;" parent="1" vertex="1">
          <mxGeometry x="650" y="34" width="100" height="70" as="geometry" />
        </mxCell>
        <mxCell id="N8VDQgT_DGMl3T4in-GJ-8" value="" style="image;sketch=0;aspect=fixed;html=1;points=[];align=center;fontSize=12;image=img/lib/mscae/Cache_Redis_Product.svg;shadow=0;labelBackgroundColor=none;fillColor=#5D7F99;strokeColor=#D0CEE2;fontColor=#1A1A1A;" parent="1" vertex="1">
          <mxGeometry x="470" y="310" width="59.52" height="50" as="geometry" />
        </mxCell>
        <mxCell id="N8VDQgT_DGMl3T4in-GJ-9" value="Cassnadra" style="sketch=0;points=[[0,0,0],[0.25,0,0],[0.5,0,0],[0.75,0,0],[1,0,0],[0,1,0],[0.25,1,0],[0.5,1,0],[0.75,1,0],[1,1,0],[0,0.25,0],[0,0.5,0],[0,0.75,0],[1,0.25,0],[1,0.5,0],[1,0.75,0]];outlineConnect=0;fontColor=#1A1A1A;fillColor=#5D7F99;strokeColor=#D0CEE2;dashed=0;verticalLabelPosition=bottom;verticalAlign=top;align=center;html=1;fontSize=12;fontStyle=0;aspect=fixed;shape=mxgraph.aws4.resourceIcon;resIcon=mxgraph.aws4.managed_apache_cassandra_service;shadow=0;labelBackgroundColor=none;" parent="1" vertex="1">
          <mxGeometry x="830" y="30" width="78" height="78" as="geometry" />
        </mxCell>
        <mxCell id="N8VDQgT_DGMl3T4in-GJ-11" style="edgeStyle=orthogonalEdgeStyle;rounded=0;orthogonalLoop=1;jettySize=auto;html=1;entryX=1;entryY=0.5;entryDx=0;entryDy=0;entryPerimeter=0;shadow=0;labelBackgroundColor=none;strokeColor=#736CA8;fontColor=default;" parent="1" source="N8VDQgT_DGMl3T4in-GJ-3" target="N8VDQgT_DGMl3T4in-GJ-2" edge="1">
          <mxGeometry relative="1" as="geometry" />
        </mxCell>
        <mxCell id="N8VDQgT_DGMl3T4in-GJ-25" value="③inform&lt;div style=&quot;font-size: 20px;&quot;&gt;⑥reply&lt;/div&gt;" style="edgeLabel;html=1;align=center;verticalAlign=middle;resizable=0;points=[];fontSize=20;shadow=0;labelBackgroundColor=none;fontColor=#1A1A1A;" parent="N8VDQgT_DGMl3T4in-GJ-11" vertex="1" connectable="0">
          <mxGeometry x="-0.0133" relative="1" as="geometry">
            <mxPoint as="offset" />
          </mxGeometry>
        </mxCell>
        <mxCell id="N8VDQgT_DGMl3T4in-GJ-14" style="edgeStyle=orthogonalEdgeStyle;rounded=0;orthogonalLoop=1;jettySize=auto;html=1;exitX=1;exitY=0.5;exitDx=0;exitDy=0;exitPerimeter=0;entryX=0;entryY=0.5;entryDx=0;entryDy=0;entryPerimeter=0;shadow=0;labelBackgroundColor=none;strokeColor=#736CA8;fontColor=default;" parent="1" source="N8VDQgT_DGMl3T4in-GJ-3" target="N8VDQgT_DGMl3T4in-GJ-9" edge="1">
          <mxGeometry relative="1" as="geometry" />
        </mxCell>
        <mxCell id="N8VDQgT_DGMl3T4in-GJ-26" value="⑤write" style="edgeLabel;html=1;align=center;verticalAlign=middle;resizable=0;points=[];fontSize=20;shadow=0;labelBackgroundColor=none;fontColor=#1A1A1A;" parent="N8VDQgT_DGMl3T4in-GJ-14" vertex="1" connectable="0">
          <mxGeometry x="0.025" y="2" relative="1" as="geometry">
            <mxPoint as="offset" />
          </mxGeometry>
        </mxCell>
        <mxCell id="1Qu5c97stLzSdB6DePH7-2" style="edgeStyle=orthogonalEdgeStyle;rounded=0;orthogonalLoop=1;jettySize=auto;html=1;entryX=0.958;entryY=0.62;entryDx=0;entryDy=0;entryPerimeter=0;" edge="1" parent="1" source="N8VDQgT_DGMl3T4in-GJ-3" target="N8VDQgT_DGMl3T4in-GJ-8">
          <mxGeometry relative="1" as="geometry">
            <Array as="points">
              <mxPoint x="700" y="341" />
            </Array>
          </mxGeometry>
        </mxCell>
      </root>
    </mxGraphModel>
  </diagram>
  <diagram id="cIUVOWCGPwy-1lRlkrbI" name="第 2 页">
    <mxGraphModel dx="1386" dy="806" grid="1" gridSize="10" guides="1" tooltips="1" connect="1" arrows="1" fold="1" page="1" pageScale="1" pageWidth="827" pageHeight="1169" math="0" shadow="0">
      <root>
        <mxCell id="0" />
        <mxCell id="1" parent="0" />
        <mxCell id="s8XY1EOVhq8qbe6mxRrr-1" style="rounded=0;orthogonalLoop=1;jettySize=auto;html=1;labelBackgroundColor=none;strokeColor=#736CA8;fontColor=default;strokeWidth=2;" parent="1" source="s8XY1EOVhq8qbe6mxRrr-6" target="s8XY1EOVhq8qbe6mxRrr-14" edge="1">
          <mxGeometry relative="1" as="geometry" />
        </mxCell>
        <mxCell id="s8XY1EOVhq8qbe6mxRrr-2" value="connect" style="edgeLabel;html=1;align=center;verticalAlign=middle;resizable=0;points=[];strokeColor=#D0CEE2;fontColor=#1A1A1A;fillColor=#5D7F99;fontSize=16;" parent="s8XY1EOVhq8qbe6mxRrr-1" vertex="1" connectable="0">
          <mxGeometry x="-0.0035" y="1" relative="1" as="geometry">
            <mxPoint x="1" as="offset" />
          </mxGeometry>
        </mxCell>
        <mxCell id="s8XY1EOVhq8qbe6mxRrr-6" value="DTS-G2" style="image;aspect=fixed;html=1;points=[];align=center;fontSize=12;image=img/lib/azure2/other/Connected_Vehicle_Platform.svg;shadow=0;labelBackgroundColor=none;fillColor=#5D7F99;strokeColor=#D0CEE2;fontColor=#1A1A1A;" parent="1" vertex="1">
          <mxGeometry x="60" y="233" width="68" height="52" as="geometry" />
        </mxCell>
        <mxCell id="s8XY1EOVhq8qbe6mxRrr-7" style="edgeStyle=orthogonalEdgeStyle;rounded=0;orthogonalLoop=1;jettySize=auto;html=1;elbow=vertical;labelBackgroundColor=none;strokeColor=#736CA8;fontColor=default;startArrow=none;startFill=0;strokeWidth=2;endArrow=classic;endFill=1;" parent="1" source="s8XY1EOVhq8qbe6mxRrr-9" target="s8XY1EOVhq8qbe6mxRrr-14" edge="1">
          <mxGeometry relative="1" as="geometry">
            <Array as="points">
              <mxPoint x="430" y="195" />
              <mxPoint x="430" y="195" />
            </Array>
          </mxGeometry>
        </mxCell>
        <mxCell id="s8XY1EOVhq8qbe6mxRrr-8" value="inform event message" style="edgeLabel;html=1;align=center;verticalAlign=middle;resizable=0;points=[];strokeColor=#D0CEE2;fontColor=#1A1A1A;fillColor=#5D7F99;fontSize=16;" parent="s8XY1EOVhq8qbe6mxRrr-7" vertex="1" connectable="0">
          <mxGeometry x="-0.0078" relative="1" as="geometry">
            <mxPoint as="offset" />
          </mxGeometry>
        </mxCell>
        <mxCell id="s6-k2AuxH5Z_LqKJhq69-6" style="edgeStyle=orthogonalEdgeStyle;rounded=0;orthogonalLoop=1;jettySize=auto;html=1;entryX=1;entryY=0.25;entryDx=0;entryDy=0;fillColor=#e1d5e7;strokeColor=#9673a6;strokeWidth=2;" edge="1" parent="1" source="s8XY1EOVhq8qbe6mxRrr-9" target="s6-k2AuxH5Z_LqKJhq69-1">
          <mxGeometry relative="1" as="geometry">
            <Array as="points">
              <mxPoint x="430" y="285" />
            </Array>
          </mxGeometry>
        </mxCell>
        <mxCell id="s6-k2AuxH5Z_LqKJhq69-7" value="&lt;span style=&quot;color: rgb(26, 26, 26); font-size: 16px;&quot;&gt;inform event message&lt;/span&gt;" style="edgeLabel;html=1;align=center;verticalAlign=middle;resizable=0;points=[];" vertex="1" connectable="0" parent="s6-k2AuxH5Z_LqKJhq69-6">
          <mxGeometry x="0.3212" relative="1" as="geometry">
            <mxPoint as="offset" />
          </mxGeometry>
        </mxCell>
        <mxCell id="s8XY1EOVhq8qbe6mxRrr-9" value="MQTT Broker" style="sketch=0;outlineConnect=0;fontColor=#1A1A1A;fillColor=#5D7F99;strokeColor=none;dashed=0;verticalLabelPosition=bottom;verticalAlign=top;align=center;html=1;fontSize=12;fontStyle=0;aspect=fixed;pointerEvents=1;shape=mxgraph.aws4.mq_broker;labelBackgroundColor=none;" parent="1" vertex="1">
          <mxGeometry x="391" y="115" width="78" height="69" as="geometry" />
        </mxCell>
        <mxCell id="s8XY1EOVhq8qbe6mxRrr-10" style="edgeStyle=orthogonalEdgeStyle;rounded=0;orthogonalLoop=1;jettySize=auto;html=1;labelBackgroundColor=none;strokeColor=#736CA8;fontColor=default;strokeWidth=2;" parent="1" source="s8XY1EOVhq8qbe6mxRrr-14" target="s8XY1EOVhq8qbe6mxRrr-21" edge="1">
          <mxGeometry relative="1" as="geometry" />
        </mxCell>
        <mxCell id="s8XY1EOVhq8qbe6mxRrr-11" value="update event status" style="edgeLabel;html=1;align=center;verticalAlign=middle;resizable=0;points=[];strokeColor=#D0CEE2;fontColor=#1A1A1A;fillColor=#5D7F99;fontSize=16;" parent="s8XY1EOVhq8qbe6mxRrr-10" vertex="1" connectable="0">
          <mxGeometry x="-0.0042" y="1" relative="1" as="geometry">
            <mxPoint as="offset" />
          </mxGeometry>
        </mxCell>
        <mxCell id="s8XY1EOVhq8qbe6mxRrr-12" style="edgeStyle=orthogonalEdgeStyle;rounded=0;orthogonalLoop=1;jettySize=auto;html=1;fontColor=default;strokeWidth=2;startArrow=none;startFill=0;endArrow=classic;endFill=1;labelBackgroundColor=none;fillColor=#f8cecc;strokeColor=#b85450;" parent="1" source="s8XY1EOVhq8qbe6mxRrr-14" target="s8XY1EOVhq8qbe6mxRrr-9" edge="1">
          <mxGeometry relative="1" as="geometry">
            <mxPoint x="430" y="195" as="targetPoint" />
            <Array as="points">
              <mxPoint x="550" y="479" />
              <mxPoint x="550" y="149" />
            </Array>
          </mxGeometry>
        </mxCell>
        <mxCell id="s8XY1EOVhq8qbe6mxRrr-13" value="subscribe topic" style="edgeLabel;html=1;align=center;verticalAlign=middle;resizable=0;points=[];strokeColor=#D0CEE2;fontColor=#1A1A1A;fillColor=#5D7F99;fontSize=16;" parent="s8XY1EOVhq8qbe6mxRrr-12" vertex="1" connectable="0">
          <mxGeometry x="-0.0064" relative="1" as="geometry">
            <mxPoint x="-1" y="45" as="offset" />
          </mxGeometry>
        </mxCell>
        <mxCell id="s8XY1EOVhq8qbe6mxRrr-14" value="アダプト&lt;div&gt;ミドル&lt;/div&gt;" style="sketch=0;outlineConnect=0;fontColor=#1A1A1A;strokeColor=#D0CEE2;fillColor=#5D7F99;dashed=0;verticalLabelPosition=middle;verticalAlign=bottom;align=center;html=1;whiteSpace=wrap;fontSize=10;fontStyle=1;spacing=3;shape=mxgraph.aws4.productIcon;prIcon=mxgraph.aws4.ecs;labelBackgroundColor=none;" parent="1" vertex="1">
          <mxGeometry x="390" y="424" width="80" height="110" as="geometry" />
        </mxCell>
        <mxCell id="s8XY1EOVhq8qbe6mxRrr-15" style="rounded=0;orthogonalLoop=1;jettySize=auto;html=1;endArrow=classic;endFill=1;startArrow=none;startFill=0;labelBackgroundColor=none;strokeColor=#736CA8;fontColor=default;strokeWidth=2;" parent="1" source="s8XY1EOVhq8qbe6mxRrr-17" target="s8XY1EOVhq8qbe6mxRrr-14" edge="1">
          <mxGeometry relative="1" as="geometry" />
        </mxCell>
        <mxCell id="s8XY1EOVhq8qbe6mxRrr-16" value="connect" style="edgeLabel;html=1;align=center;verticalAlign=middle;resizable=0;points=[];strokeColor=#D0CEE2;fontColor=#1A1A1A;fillColor=#5D7F99;fontSize=16;" parent="s8XY1EOVhq8qbe6mxRrr-15" vertex="1" connectable="0">
          <mxGeometry relative="1" as="geometry">
            <mxPoint as="offset" />
          </mxGeometry>
        </mxCell>
        <mxCell id="s8XY1EOVhq8qbe6mxRrr-17" value="ISUZU" style="image;aspect=fixed;html=1;points=[];align=center;fontSize=12;image=img/lib/azure2/other/Connected_Vehicle_Platform.svg;shadow=0;labelBackgroundColor=none;fillColor=#5D7F99;strokeColor=#D0CEE2;fontColor=#1A1A1A;" parent="1" vertex="1">
          <mxGeometry x="60" y="389" width="68" height="52" as="geometry" />
        </mxCell>
        <mxCell id="s8XY1EOVhq8qbe6mxRrr-18" style="edgeStyle=none;rounded=0;orthogonalLoop=1;jettySize=auto;html=1;labelBackgroundColor=none;strokeColor=#736CA8;fontColor=default;strokeWidth=2;" parent="1" source="s8XY1EOVhq8qbe6mxRrr-20" target="s8XY1EOVhq8qbe6mxRrr-14" edge="1">
          <mxGeometry relative="1" as="geometry" />
        </mxCell>
        <mxCell id="s8XY1EOVhq8qbe6mxRrr-19" value="connect" style="edgeLabel;html=1;align=center;verticalAlign=middle;resizable=0;points=[];strokeColor=#D0CEE2;fontColor=#1A1A1A;fillColor=#5D7F99;fontSize=16;" parent="s8XY1EOVhq8qbe6mxRrr-18" vertex="1" connectable="0">
          <mxGeometry x="-0.0041" y="2" relative="1" as="geometry">
            <mxPoint as="offset" />
          </mxGeometry>
        </mxCell>
        <mxCell id="s8XY1EOVhq8qbe6mxRrr-20" value="DTS-D1/D2/G1" style="image;aspect=fixed;html=1;points=[];align=center;fontSize=12;image=img/lib/azure2/other/Connected_Vehicle_Platform.svg;shadow=0;labelBackgroundColor=none;fillColor=#5D7F99;strokeColor=#D0CEE2;fontColor=#1A1A1A;" parent="1" vertex="1">
          <mxGeometry x="60" y="554" width="68" height="52" as="geometry" />
        </mxCell>
        <mxCell id="s8XY1EOVhq8qbe6mxRrr-21" value="&lt;div&gt;コア&lt;/div&gt;&lt;div&gt;ミドル&lt;/div&gt;" style="sketch=0;outlineConnect=0;fontColor=#1A1A1A;strokeColor=#D0CEE2;fillColor=#5D7F99;dashed=0;verticalLabelPosition=middle;verticalAlign=bottom;align=center;html=1;whiteSpace=wrap;fontSize=10;fontStyle=1;spacing=3;shape=mxgraph.aws4.productIcon;prIcon=mxgraph.aws4.ecs;labelBackgroundColor=none;" parent="1" vertex="1">
          <mxGeometry x="842" y="424" width="80" height="110" as="geometry" />
        </mxCell>
        <mxCell id="s8XY1EOVhq8qbe6mxRrr-22" style="edgeStyle=orthogonalEdgeStyle;rounded=0;orthogonalLoop=1;jettySize=auto;html=1;strokeColor=#736CA8;fontColor=#1A1A1A;strokeWidth=2;" parent="1" source="s8XY1EOVhq8qbe6mxRrr-24" target="s8XY1EOVhq8qbe6mxRrr-27" edge="1">
          <mxGeometry relative="1" as="geometry" />
        </mxCell>
        <mxCell id="s8XY1EOVhq8qbe6mxRrr-23" value="get event data" style="edgeLabel;html=1;align=center;verticalAlign=middle;resizable=0;points=[];strokeColor=#D0CEE2;fontColor=#1A1A1A;fillColor=#5D7F99;fontSize=16;" parent="s8XY1EOVhq8qbe6mxRrr-22" vertex="1" connectable="0">
          <mxGeometry x="-0.0169" relative="1" as="geometry">
            <mxPoint y="-9" as="offset" />
          </mxGeometry>
        </mxCell>
        <mxCell id="s8XY1EOVhq8qbe6mxRrr-24" value="Amazon&#xa;Aurora" style="sketch=0;outlineConnect=0;fontColor=#1A1A1A;strokeColor=#D0CEE2;fillColor=#5D7F99;dashed=0;verticalLabelPosition=middle;verticalAlign=bottom;align=center;html=1;whiteSpace=wrap;fontSize=10;fontStyle=1;spacing=3;shape=mxgraph.aws4.productIcon;prIcon=mxgraph.aws4.aurora;labelBackgroundColor=none;" parent="1" vertex="1">
          <mxGeometry x="842" y="94.5" width="80" height="110" as="geometry" />
        </mxCell>
        <mxCell id="s8XY1EOVhq8qbe6mxRrr-25" style="edgeStyle=elbowEdgeStyle;rounded=0;orthogonalLoop=1;jettySize=auto;elbow=horizontal;html=1;labelBackgroundColor=none;strokeColor=#736CA8;fontColor=default;strokeWidth=2;" parent="1" source="s8XY1EOVhq8qbe6mxRrr-27" target="s8XY1EOVhq8qbe6mxRrr-9" edge="1">
          <mxGeometry relative="1" as="geometry">
            <Array as="points">
              <mxPoint x="540" y="40" />
            </Array>
          </mxGeometry>
        </mxCell>
        <mxCell id="s8XY1EOVhq8qbe6mxRrr-26" value="push event message" style="edgeLabel;html=1;align=center;verticalAlign=middle;resizable=0;points=[];strokeColor=#D0CEE2;fontColor=#1A1A1A;fillColor=#5D7F99;fontSize=16;" parent="s8XY1EOVhq8qbe6mxRrr-25" vertex="1" connectable="0">
          <mxGeometry x="0.1913" y="-1" relative="1" as="geometry">
            <mxPoint x="34" y="-9" as="offset" />
          </mxGeometry>
        </mxCell>
        <mxCell id="s8XY1EOVhq8qbe6mxRrr-27" value="&lt;div&gt;バッチ&lt;/div&gt;&lt;div&gt;ミドル&lt;/div&gt;" style="sketch=0;outlineConnect=0;fontColor=#1A1A1A;strokeColor=#D0CEE2;fillColor=#5D7F99;dashed=0;verticalLabelPosition=middle;verticalAlign=bottom;align=center;html=1;whiteSpace=wrap;fontSize=10;fontStyle=1;spacing=3;shape=mxgraph.aws4.productIcon;prIcon=mxgraph.aws4.ecs;labelBackgroundColor=none;" parent="1" vertex="1">
          <mxGeometry x="607" y="94.5" width="80" height="110" as="geometry" />
        </mxCell>
        <mxCell id="s8XY1EOVhq8qbe6mxRrr-28" style="edgeStyle=orthogonalEdgeStyle;rounded=0;orthogonalLoop=1;jettySize=auto;html=1;entryX=1;entryY=0.596;entryDx=0;entryDy=0;entryPerimeter=0;strokeColor=#736CA8;fontColor=#1A1A1A;strokeWidth=2;" parent="1" source="s8XY1EOVhq8qbe6mxRrr-14" target="s8XY1EOVhq8qbe6mxRrr-20" edge="1">
          <mxGeometry relative="1" as="geometry">
            <Array as="points">
              <mxPoint x="430" y="585" />
            </Array>
          </mxGeometry>
        </mxCell>
        <mxCell id="s8XY1EOVhq8qbe6mxRrr-29" value="send event data" style="edgeLabel;html=1;align=center;verticalAlign=middle;resizable=0;points=[];strokeColor=#D0CEE2;fontColor=#1A1A1A;fillColor=#5D7F99;fontSize=16;" parent="s8XY1EOVhq8qbe6mxRrr-28" vertex="1" connectable="0">
          <mxGeometry x="0.1388" relative="1" as="geometry">
            <mxPoint as="offset" />
          </mxGeometry>
        </mxCell>
        <mxCell id="s8XY1EOVhq8qbe6mxRrr-32" style="edgeStyle=orthogonalEdgeStyle;rounded=0;orthogonalLoop=1;jettySize=auto;html=1;entryX=0.5;entryY=1.05;entryDx=0;entryDy=0;entryPerimeter=0;strokeColor=#736CA8;fontColor=#1A1A1A;strokeWidth=2;" parent="1" source="s8XY1EOVhq8qbe6mxRrr-21" target="s8XY1EOVhq8qbe6mxRrr-24" edge="1">
          <mxGeometry relative="1" as="geometry" />
        </mxCell>
        <mxCell id="s8XY1EOVhq8qbe6mxRrr-33" value="update event status" style="edgeLabel;html=1;align=center;verticalAlign=middle;resizable=0;points=[];strokeColor=#D0CEE2;fontColor=#1A1A1A;fillColor=#5D7F99;fontSize=16;" parent="1" vertex="1" connectable="0">
          <mxGeometry x="882" y="320" as="geometry" />
        </mxCell>
        <mxCell id="s6-k2AuxH5Z_LqKJhq69-2" style="edgeStyle=orthogonalEdgeStyle;rounded=0;orthogonalLoop=1;jettySize=auto;html=1;fillColor=#f8cecc;strokeColor=#b85450;strokeWidth=2;" edge="1" parent="1" source="s6-k2AuxH5Z_LqKJhq69-1" target="s8XY1EOVhq8qbe6mxRrr-9">
          <mxGeometry relative="1" as="geometry">
            <Array as="points">
              <mxPoint x="94" y="150" />
            </Array>
          </mxGeometry>
        </mxCell>
        <mxCell id="s6-k2AuxH5Z_LqKJhq69-4" value="&lt;font style=&quot;font-size: 16px;&quot;&gt;subscribe topic&lt;/font&gt;" style="edgeLabel;html=1;align=center;verticalAlign=middle;resizable=0;points=[];" vertex="1" connectable="0" parent="s6-k2AuxH5Z_LqKJhq69-2">
          <mxGeometry x="0.1935" relative="1" as="geometry">
            <mxPoint as="offset" />
          </mxGeometry>
        </mxCell>
        <mxCell id="s6-k2AuxH5Z_LqKJhq69-1" value="" style="whiteSpace=wrap;html=1;fillColor=none;strokeColor=#9673a6;strokeWidth=3;dashed=1;" vertex="1" parent="1">
          <mxGeometry x="34" y="220" width="120" height="260" as="geometry" />
        </mxCell>
      </root>
    </mxGraphModel>
  </diagram>
</mxfile>
